# xmcd
#
# Track frame offsets:
#	150
#	31050
#	56633
#	94652
#	129537
#	184182
#	236329
#
# Disc length: 3454 seconds
#
# Revision: 1
# Processed by: cddbd v1.5.2PL0 Copyright (c) Steve Scherf et al.
# Submitted via: audiograbber 1.83.01
#
DISCID=520d7c07
DTITLE=Grateful Dead - 82-09-14 University of Virginia, Charlottesville VA
DYEAR=1900
DGENRE=
TTITLE0=China Cat Sunflower
TTITLE1=I Know You Rider
TTITLE2=Samson and Delilah
TTITLE3=High Time
TTITLE4=Estimated Prophet
TTITLE5=He's Gone
TTITLE6=Drums
EXTD=
EXTT0=
EXTT1=
EXTT2=
EXTT3=
EXTT4=
EXTT5=
EXTT6=
PLAYORDER=
